<svg xmlns="http://www.w3.org/2000/svg" width="60" height="60" viewBox="0 0 60 60">
  <g id="twitter" transform="translate(0.099 0.01)">
    <rect id="Rectangle_32" data-name="Rectangle 32" width="60" height="60" transform="translate(-0.099 -0.01)" fill="none"/>
    <path id="twitter-2" data-name="twitter" d="M32.72,6.243a13.519,13.519,0,0,1-3.317.947c.534-.09,1.322-1.057,1.637-1.449a6.1,6.1,0,0,0,1.1-2.012c.029-.057.051-.129-.006-.173a.193.193,0,0,0-.177.015,16.952,16.952,0,0,1-3.94,1.509.265.265,0,0,1-.272-.072,3.184,3.184,0,0,0-.344-.353A6.974,6.974,0,0,0,25.5,3.485a6.648,6.648,0,0,0-2.928-.472A7.006,7.006,0,0,0,19.79,3.8a7.166,7.166,0,0,0-2.24,1.829,6.88,6.88,0,0,0-1.338,2.681,7.3,7.3,0,0,0-.072,2.83c.023.158.008.18-.134.158-5.415-.8-9.9-2.741-13.543-6.89-.158-.181-.244-.181-.374.013C.5,6.809,1.269,10.646,3.26,12.533c.266.251.538.5.832.732a6.894,6.894,0,0,1-2.613-.732c-.158-.1-.237-.042-.251.137a4.1,4.1,0,0,0,.043.776,6.945,6.945,0,0,0,4.28,5.536,4.044,4.044,0,0,0,.868.265,7.739,7.739,0,0,1-2.563.08c-.187-.037-.259.056-.187.236,1.127,3.074,3.561,3.988,5.384,4.509.244.043.489.043.733.1-.014.022-.029.022-.043.043-.606.922-2.7,1.608-3.677,1.95a13.183,13.183,0,0,1-5.585.714c-.3-.044-.363-.041-.444,0s-.01.123.086.2c.38.251.768.474,1.163.69a18.424,18.424,0,0,0,3.734,1.493c6.709,1.853,14.266.492,19.306-4.514,3.955-3.931,5.341-9.351,5.341-14.78,0-.211.25-.328.4-.441A12.979,12.979,0,0,0,32.681,6.8a.8.8,0,0,0,.162-.523V6.243C32.844,6.157,32.854,6.183,32.72,6.243Z" transform="translate(13.356 13.929)" fill="#ffeb3b" stroke="#707070" stroke-width="1" fill-rule="evenodd"/>
  </g>
</svg>
