<svg xmlns="http://www.w3.org/2000/svg" viewBox="0 0 16 16"><defs><style>.cls-1{fill:#4484ce;}.cls-1,.cls-2{stroke:#4484ce;stroke-miterlimit:10;stroke-width:0.25px;}.cls-2,.cls-4{fill:#ffeb3b;}.cls-3{fill:none;}</style></defs><title>Favcon1-16x16</title><g id="Favcon"><path class="cls-1" d="M8.75,9.63c-.26.17-.22.35.08.68l1.28,1.42c.22.24.24.39,0,.6-.76.57-.74.57-1.41-.11-.38-.38-.74-.79-1.08-1.2-.12-.14-.2-.21-.38,0s-.59.72-1.09.23c-.08-.07-.23.16-.34.25-.59.52-.59.53-1.11,0S3.82,10.49,3.42,10c-.24-.27,0-.43.14-.59A1.77,1.77,0,0,0,4.1,9s0-.08,0-.09c-.43-.43,0-.65.22-.87L6.11,6.49c.35-.3.33-.79.48-1.19.3-.8.54-1.63.83-2.43.2-.55.47-.61.85-.19l4.79,5.26c.13.15.35.28.26.53s-.31.29-.56.33a29.58,29.58,0,0,0-4,.83"/><path class="cls-1" d="M8.15,15.39a7.49,7.49,0,0,1-5.7-2.22A7,7,0,0,1,.37,9.08a7,7,0,0,1,1.81-6A7.35,7.35,0,0,1,8.06.6c.3,0,.48.16.45.47A.49.49,0,0,1,8,1.58a6.11,6.11,0,0,0-2.49.49A6.31,6.31,0,0,0,4.22,13.29a6.81,6.81,0,0,0,8.76-1,5.89,5.89,0,0,0,1.64-3.67c0-.19.07-.38.08-.57,0-.34.16-.5.49-.5a.48.48,0,0,1,.53.53,5.89,5.89,0,0,1-.21,1.67A7.53,7.53,0,0,1,10,15.18,5.35,5.35,0,0,1,8.15,15.39Z"/><path class="cls-1" d="M13.69,5.74v.17c0,.2,0,.35-.26.37s-.31-.13-.33-.35A2.91,2.91,0,0,0,12,3.79a3.54,3.54,0,0,0-1.67-.59c-.18,0-.32,0-.33-.29s.2-.27.34-.27a3.37,3.37,0,0,1,3.39,3.1Z"/><path class="cls-2" d="M15.48,5.27v.25c0,.29-.06.5-.38.53s-.45-.18-.48-.5A4.15,4.15,0,0,0,13,2.48a5.06,5.06,0,0,0-2.41-.84c-.26,0-.46-.06-.48-.42s.29-.38.49-.39A4.7,4.7,0,0,1,13.7,1.92,4.79,4.79,0,0,1,15.48,5.27Z"/><path class="cls-3" d="M8.65,9.29l0,0L8.6,8.73C8.63,9.05,8.65,9.25,8.65,9.29Z"/><path class="cls-3" d="M8.68,9.35a0,0,0,0,0,0,0v0Z"/><path class="cls-3" d="M7.79,2.47Z"/><path class="cls-3" d="M8,4.31,8.6,8.73C8.49,7.77,8.23,5.79,8,4.31Z"/><path class="cls-3" d="M8.68,9.53l0,0h0l0-.18A.28.28,0,0,0,8.68,9.53Z"/><path class="cls-4" d="M13.28,8.32s0-.05,0-.05h0l-.06-.09-.09-.09,0,0L13,8c-.5-.55-.66-.74-.66-.74l-.93-1-1-1.07-.32-.35L9.9,4.55l-.2-.22-.19-.21L9.36,4l-.14-.15L9.1,3.67,9,3.53,8.84,3.4l-.09-.11-.12-.13-.09-.09L8.44,3l-.11-.11,0,0,0,0L8.2,2.7l-.07-.07,0,0,0,0,0,0,0,0H8l0,0h-.2l0,1.91c.1.74.21,1.61.31,2.41,0,.18.25.41.3.81a1.28,1.28,0,0,0,0,.18c0,.24.1.56.15,1l.07.59a0,0,0,0,1,0,0v0l0,.18,0,0,.15-.05.24-.07.32-.08.3-.07L10,9.24l.19,0,.15,0,.18,0,.16,0,.12,0,.15,0L11,9l.17,0,.11,0,.18,0,.13,0,.19,0,.12,0H12l.14,0,.11,0h.23l.14,0h.11l.09,0h.06l.06,0,.06,0,.09,0,0,0a.37.37,0,0,0,.07-.1l0-.09A.21.21,0,0,0,13.28,8.32Z"/><path class="cls-4" d="M8.79,9.46c0-.06,0-.09,0-.12l-.15,0s.07-.06.07-.06a1.89,1.89,0,0,1-.14-.53L8,4.31c-.14-1-.25-1.81-.25-1.84H7.7s0,0,0,0l0,0,0,0,0,0,0,.08,0,.09A1.56,1.56,0,0,1,7.45,3a.63.63,0,0,1-.06.17l-.06.18a1.84,1.84,0,0,1-.06.18.86.86,0,0,1,0,.15s0,0-.06.18l0,.18-.06.16,0,.11,0,.13,0,.12a1.19,1.19,0,0,0,0,.14c0,.06,0,.1,0,.14l0,.08a.79.79,0,0,1,0,.13l0,.12a1.15,1.15,0,0,1,0,.15l0,.06a.64.64,0,0,0-.05.15s0,.09,0,.11l0,.09a.75.75,0,0,0,0,.11.16.16,0,0,0,0,.09l0,.08,0,.11,0,.12a.54.54,0,0,1-.05.11,1,1,0,0,1-.08.12A22.51,22.51,0,0,0,8.7,9.57v0l0,0S8.8,9.47,8.79,9.46Zm-1-7Z"/></g></svg>