<svg id="Logotipo" xmlns="http://www.w3.org/2000/svg" viewBox="0 0 150 50"><defs><style>.cls-1,.cls-5{fill:#4484ce;}.cls-1,.cls-2{stroke:#4484ce;stroke-miterlimit:10;stroke-width:0.5px;}.cls-2,.cls-4{fill:#ffeb3b;}.cls-3{fill:none;}</style></defs><title>Logotipo</title><path class="cls-1" d="M25.55,29.7c-.74.5-.63,1,.24,2C27,33,28.23,34.41,29.48,35.75c.64.69.7,1.12-.15,1.74-2.19,1.63-2.12,1.63-4.06-.31-1.1-1.11-2.12-2.28-3.13-3.47-.34-.4-.58-.6-1.07-.15-.9.81-1.72,2.08-3.15.68-.22-.22-.68.44-1,.72-1.67,1.49-1.69,1.51-3.19-.12-1.21-1.31-2.38-2.66-3.56-4-.68-.78-.14-1.25.43-1.69s1.18-.68,1.55-1.3c0-.09,0-.2-.07-.26-1.22-1.24-.09-1.85.66-2.5,1.71-1.5,3.49-2.93,5.21-4.42,1-.89,1-2.29,1.39-3.45.86-2.31,1.54-4.68,2.38-7,.57-1.59,1.35-1.75,2.45-.55Q31.12,17.24,38,24.84c.37.41,1,.8.73,1.52s-.89.83-1.61.95A87.22,87.22,0,0,0,25.55,29.7"/><path class="cls-1" d="M23.84,46.3A21.58,21.58,0,0,1,7.38,39.92a20.25,20.25,0,0,1-6-11.81A20.14,20.14,0,0,1,6.61,10.89,21.2,21.2,0,0,1,23.55,3.66c.87,0,1.39.45,1.33,1.37a1.44,1.44,0,0,1-1.62,1.45,17.77,17.77,0,0,0-7.19,1.41C9.84,10.48,5.68,15,4.42,22,3.11,29.16,6.23,36,12.48,40.25a19.69,19.69,0,0,0,25.29-3,17.11,17.11,0,0,0,4.72-10.59c0-.55.21-1.1.22-1.65,0-1,.47-1.45,1.42-1.44a1.4,1.4,0,0,1,1.54,1.53,17.35,17.35,0,0,1-.61,4.81c-2.33,8.38-7.86,13.4-15.78,15.77A14.57,14.57,0,0,1,23.84,46.3Z"/><path class="cls-1" d="M39.81,18.47V19c0,.58-.13,1-.76,1.06s-.9-.37-1-1a8.32,8.32,0,0,0-3.26-6.17A10.27,10.27,0,0,0,30,11.16c-.53-.08-.94-.12-1-.84s.58-.77,1-.78a9.39,9.39,0,0,1,6.25,2.21A9.55,9.55,0,0,1,39.81,18.47Z"/><path class="cls-2" d="M45,17.12c0,.24,0,.49,0,.73.05.83-.18,1.44-1.1,1.53s-1.29-.52-1.38-1.44a12,12,0,0,0-4.73-8.85c-2.12-1.61-4.5-2-6.95-2.43-.76-.12-1.34-.18-1.39-1.2-.05-1.18.83-1.12,1.42-1.13a13.49,13.49,0,0,1,9,3.14A13.76,13.76,0,0,1,45,17.12Z"/><path class="cls-3" d="M25.27,28.71s0,0,.06.09l-.22-1.7C25.22,28,25.28,28.62,25.27,28.71Z"/><path class="cls-3" d="M25.37,28.91a.21.21,0,0,0,0-.11l0,.16Z"/><path class="cls-3" d="M22.79,9.06h0Z"/><path class="cls-3" d="M23.5,14.37,25.11,27.1C24.79,24.34,24.06,18.63,23.5,14.37Z"/><path class="cls-3" d="M25.36,29.4a.25.25,0,0,0,.05.08h0L25.35,29A.6.6,0,0,0,25.36,29.4Z"/><path class="cls-4" d="M38.62,25.92a.85.85,0,0,0,0-.15v0a1.59,1.59,0,0,0-.18-.26,1.94,1.94,0,0,0-.25-.26l-.11-.1s-.1-.1-.2-.22c-1.47-1.59-1.92-2.12-1.92-2.12l-2.67-2.94-2.79-3.06-.92-1-.66-.72-.58-.64c-.35-.38-.39-.42-.55-.61s-.29-.31-.43-.46l-.4-.44-.35-.38-.39-.42-.34-.38-.28-.3L25.2,11,25,10.77l-.31-.33-.3-.33L24.24,10l-.11-.12L24,9.71l-.2-.2-.08-.07-.09-.07a.35.35,0,0,0-.09-.07l-.07-.05-.05,0-.07,0-.06,0-.06,0-.06,0-.06,0H23a1,1,0,0,0-.25,0l.15,5.5c.28,2.13.59,4.64.89,6.94.06.52.72,1.18.86,2.33,0,.13,0,.31,0,.54.08.68.28,1.59.41,2.72l.22,1.7a.21.21,0,0,1,0,.11l0,.05.06.52s.05.06.09.06.05,0,.44-.15l.68-.2.93-.25.86-.2.67-.15.53-.12.44-.09.53-.11.45-.09.36-.06.43-.09.34-.06.48-.09.33-.05.52-.1.38-.06.53-.09.35-.06.29-.05.41-.07.33,0,.26,0,.22,0h.09l.06,0h0l.39-.06.31-.05.27-.05.18,0,.16,0,.18-.06a.94.94,0,0,0,.24-.13,1,1,0,0,0,.16-.12,1,1,0,0,0,.19-.29.81.81,0,0,0,.09-.24A.58.58,0,0,0,38.62,25.92Z"/><path class="cls-4" d="M25.68,29.22c-.08-.19.06-.26.09-.34l-.44-.08c0-.05.2-.16.2-.17a6.85,6.85,0,0,1-.42-1.53L23.5,14.37c-.39-3-.7-5.24-.72-5.3h-.15l0,0,0,0,0,0-.07.06-.07.07a.38.38,0,0,0-.08.09,1.26,1.26,0,0,0-.09.13,1.13,1.13,0,0,0-.12.21A2.16,2.16,0,0,0,22,10c-.06.14-.1.24-.16.42s-.14.39-.17.5c-.16.44-.16.45-.18.51l-.18.53c-.07.19-.1.29-.14.42l-.17.52-.17.51a4.51,4.51,0,0,1-.15.45c0,.08,0,.12-.1.33s-.1.3-.13.39c-.08.24-.08.23-.11.34s-.12.36-.13.39l-.14.41c0,.1-.05.15-.08.23l-.14.39c-.11.32-.1.29-.11.33l-.17.44-.06.18c0,.09-.09.23-.14.42s-.06.25-.08.32,0,.13-.05.27,0,.11-.07.29,0,.17-.07.27,0,.14-.06.25l-.09.3a3.6,3.6,0,0,1-.15.36,2.82,2.82,0,0,1-.15.31,2.48,2.48,0,0,1-.24.34c-.14.18,1.77,2.71,7,9.1v-.06l.09.06S25.69,29.23,25.68,29.22ZM22.8,9.06h0Z"/><path class="cls-5" d="M51.8,15.62h5.42a10.51,10.51,0,0,1,2.8.28,5,5,0,0,1,2.21,1.35,6.42,6.42,0,0,1,1.4,2.38,10.88,10.88,0,0,1,.49,3.48,9.59,9.59,0,0,1-.46,3.12,6.41,6.41,0,0,1-1.57,2.6A5.2,5.2,0,0,1,60,30a8.92,8.92,0,0,1-2.63.31H51.8Zm3,2.49v9.73H57a8.21,8.21,0,0,0,1.79-.14,2.69,2.69,0,0,0,1.2-.62,3.05,3.05,0,0,0,.78-1.41,9.64,9.64,0,0,0,.3-2.69,8.82,8.82,0,0,0-.3-2.62,3.33,3.33,0,0,0-.84-1.42,2.82,2.82,0,0,0-1.38-.69,12.76,12.76,0,0,0-2.43-.14Z"/><path class="cls-5" d="M66.61,18.23V15.62h2.82v2.61Zm0,12.08V19.67h2.82V30.31Z"/><path class="cls-5" d="M75.24,30.31,71,19.67h3l2,5.43.58,1.81c.15-.46.25-.76.29-.91q.14-.45.3-.9l2-5.43H82L77.77,30.31Z"/><path class="cls-5" d="M90.73,30.31V28.72a4.13,4.13,0,0,1-1.53,1.34,4.25,4.25,0,0,1-2,.49,4,4,0,0,1-1.92-.47,2.71,2.71,0,0,1-1.23-1.32,5.82,5.82,0,0,1-.39-2.36V19.67h2.82v4.89a12.91,12.91,0,0,0,.16,2.75,1.49,1.49,0,0,0,.56.8,1.73,1.73,0,0,0,1,.3,2.18,2.18,0,0,0,1.3-.4,2,2,0,0,0,.78-1,11.43,11.43,0,0,0,.21-2.87V19.67h2.81V30.31Z"/><path class="cls-5" d="M96.26,30.31V15.62h2.82V30.31Z"/><path class="cls-5" d="M101.7,31l3.22.39a1.08,1.08,0,0,0,.37.77,2.05,2.05,0,0,0,1.26.31,3.13,3.13,0,0,0,1.65-.34,1.34,1.34,0,0,0,.57-.71,4.47,4.47,0,0,0,.13-1.29V28.59a3.82,3.82,0,0,1-3.19,1.72,3.93,3.93,0,0,1-3.4-1.81,6.23,6.23,0,0,1-1-3.57,5.87,5.87,0,0,1,1.29-4.09,4.15,4.15,0,0,1,3.2-1.41,3.92,3.92,0,0,1,3.26,1.73V19.67h2.63v9.55A9.4,9.4,0,0,1,111.4,32a3.57,3.57,0,0,1-.87,1.47,3.84,3.84,0,0,1-1.5.83,7.86,7.86,0,0,1-2.37.3,6.14,6.14,0,0,1-3.84-.93,2.92,2.92,0,0,1-1.13-2.35C101.69,31.26,101.69,31.15,101.7,31Zm2.52-6.24a3.87,3.87,0,0,0,.65,2.48,2.05,2.05,0,0,0,1.62.79,2.22,2.22,0,0,0,1.74-.81,3.48,3.48,0,0,0,.72-2.39,3.78,3.78,0,0,0-.68-2.46,2.19,2.19,0,0,0-1.73-.8,2.11,2.11,0,0,0-1.67.79A3.72,3.72,0,0,0,104.22,24.77Z"/><path class="cls-5" d="M116.6,22.92l-2.55-.47a4,4,0,0,1,1.48-2.28,5.46,5.46,0,0,1,3.13-.74,6.85,6.85,0,0,1,2.8.44,2.79,2.79,0,0,1,1.3,1.14,5.75,5.75,0,0,1,.38,2.52l0,3.28a11.48,11.48,0,0,0,.13,2.07,5.89,5.89,0,0,0,.51,1.43H121c-.07-.19-.16-.46-.27-.83,0-.17-.08-.28-.1-.33a5,5,0,0,1-1.54,1.05,4.53,4.53,0,0,1-1.76.35,3.65,3.65,0,0,1-2.59-.89,3.19,3.19,0,0,1-.51-3.86,2.82,2.82,0,0,1,1.2-1.09,9.77,9.77,0,0,1,2.24-.65,16,16,0,0,0,2.74-.69v-.28a1.46,1.46,0,0,0-.4-1.16,2.4,2.4,0,0,0-1.51-.35,2,2,0,0,0-1.18.3A2.09,2.09,0,0,0,116.6,22.92Zm3.77,2.28c-.36.12-.93.26-1.71.43a5.24,5.24,0,0,0-1.54.49,1.19,1.19,0,0,0-.55,1,1.41,1.41,0,0,0,.44,1,1.58,1.58,0,0,0,1.12.43,2.48,2.48,0,0,0,1.46-.5,1.81,1.81,0,0,0,.67-.94,5.68,5.68,0,0,0,.11-1.37Z"/><path class="cls-5" d="M144.12,30.31h-3.23L139.61,27h-5.87l-1.22,3.34h-3.14l5.72-14.69h3.14Zm-5.46-5.81-2-5.45-2,5.45Z"/><path class="cls-5" d="M145.46,18.37l1.38-3H150l-2.76,3Zm.21,11.94V19.67h2.82V30.31Z"/></svg>