<svg xmlns="http://www.w3.org/2000/svg" viewBox="0 0 50 50"><defs><style>.cls-1{fill:#4484ce;}.cls-1,.cls-2{stroke:#4484ce;stroke-miterlimit:10;stroke-width:0.5px;}.cls-2,.cls-4{fill:#ffeb3b;}.cls-3{fill:none;}</style></defs><title>Logo</title><g id="Logo"><path class="cls-1" d="M27.16,29.7c-.75.5-.63,1,.24,2,1.24,1.35,2.43,2.74,3.68,4.08.64.69.7,1.12-.14,1.74-2.19,1.63-2.13,1.63-4.06-.31-1.1-1.11-2.13-2.28-3.13-3.47-.35-.4-.58-.6-1.08-.15-.89.81-1.72,2.08-3.14.68-.23-.22-.68.44-1,.72-1.68,1.49-1.69,1.51-3.19-.12-1.21-1.31-2.38-2.66-3.56-4-.68-.78-.15-1.25.42-1.69a5.42,5.42,0,0,0,1.56-1.3.66.66,0,0,0-.07-.26c-1.23-1.24-.09-1.85.65-2.5,1.72-1.5,3.49-2.93,5.21-4.42,1-.89,1-2.29,1.4-3.45.86-2.31,1.54-4.68,2.37-7,.58-1.59,1.36-1.75,2.46-.55q6.93,7.57,13.82,15.18c.38.41,1,.8.74,1.52s-.89.83-1.61.95A87.22,87.22,0,0,0,27.16,29.7"/><path class="cls-1" d="M25.44,46.3A21.61,21.61,0,0,1,9,39.92,20.23,20.23,0,0,1,3,28.11,20.08,20.08,0,0,1,8.22,10.89,21.17,21.17,0,0,1,25.16,3.66c.87,0,1.39.45,1.32,1.37a1.43,1.43,0,0,1-1.62,1.45,17.72,17.72,0,0,0-7.18,1.41C11.45,10.48,7.28,15,6,22,4.71,29.16,7.84,36,14.09,40.25a19.68,19.68,0,0,0,25.28-3A17.06,17.06,0,0,0,44.1,26.68c0-.55.21-1.1.22-1.65,0-1,.47-1.45,1.41-1.44a1.4,1.4,0,0,1,1.54,1.53,17.34,17.34,0,0,1-.6,4.81c-2.34,8.38-7.86,13.4-15.79,15.77A14.53,14.53,0,0,1,25.44,46.3Z"/><path class="cls-1" d="M41.42,18.47c0,.17,0,.34,0,.51,0,.58-.13,1-.76,1.06s-.9-.37-1-1a8.29,8.29,0,0,0-3.26-6.17,10.24,10.24,0,0,0-4.83-1.71c-.53-.08-.93-.12-1-.84s.58-.77,1-.78a9.38,9.38,0,0,1,6.24,2.21A9.56,9.56,0,0,1,41.42,18.47Z"/><path class="cls-2" d="M46.57,17.12c0,.24,0,.49,0,.73,0,.83-.18,1.44-1.09,1.53s-1.3-.52-1.39-1.44a11.93,11.93,0,0,0-4.72-8.85c-2.13-1.61-4.51-2-6.95-2.43-.77-.12-1.34-.18-1.39-1.2-.05-1.18.82-1.12,1.42-1.13a13.51,13.51,0,0,1,9,3.14A13.76,13.76,0,0,1,46.57,17.12Z"/><path class="cls-3" d="M26.87,28.71l.06.09-.21-1.7C26.82,28,26.88,28.62,26.87,28.71Z"/><path class="cls-3" d="M27,28.91a.21.21,0,0,0,0-.11L27,29Z"/><path class="cls-3" d="M24.39,9.06h0Z"/><path class="cls-3" d="M25.1,14.37,26.72,27.1C26.4,24.34,25.67,18.63,25.1,14.37Z"/><path class="cls-3" d="M27,29.4a.15.15,0,0,0,.05.08h0L27,29A.68.68,0,0,0,27,29.4Z"/><path class="cls-4" d="M40.23,25.92c0-.08,0-.14,0-.15v0a1.87,1.87,0,0,0-.17-.26,2.88,2.88,0,0,0-.25-.26l-.11-.1-.21-.22c-1.47-1.59-1.92-2.12-1.92-2.12s-.94-1-2.67-2.94l-2.78-3.06-.92-1-.66-.72-.59-.64-.55-.61c-.14-.15-.28-.31-.43-.46l-.39-.44-.36-.38-.38-.42-.35-.38c-.1-.11-.08-.1-.27-.3L26.81,11c-.16-.16-.15-.16-.25-.27l-.3-.33L26,10.11l-.1-.11-.11-.12-.16-.17c-.09-.11-.17-.17-.19-.2l-.09-.07-.08-.07a.71.71,0,0,0-.09-.07l-.07-.05-.06,0-.07,0-.05,0-.07,0-.06,0-.05,0h-.09a1.06,1.06,0,0,0-.25,0l.16,5.5c.28,2.13.59,4.64.88,6.94.07.52.72,1.18.86,2.33,0,.13,0,.31,0,.54.09.68.28,1.59.42,2.72l.21,1.7a.21.21,0,0,1,0,.11L27,29l.07.52a.1.1,0,0,0,.08.06s.06,0,.44-.15l.69-.2.92-.25.86-.2.68-.15.53-.12.44-.09.53-.11.45-.09.36-.06.42-.09.35-.06.48-.09.33-.05.51-.1.39-.06.52-.09.36-.06.29-.05.4-.07.33,0,.26,0,.23,0H38l.06,0h0l.39-.06.31-.05.26-.05.18,0,.17,0,.18-.06a1.15,1.15,0,0,0,.24-.13.82.82,0,0,0,.15-.12,1.07,1.07,0,0,0,.2-.29.81.81,0,0,0,.09-.24A1.49,1.49,0,0,0,40.23,25.92Z"/><path class="cls-4" d="M27.29,29.22c-.08-.19.06-.26.09-.34l-.45-.08c0-.05.21-.16.21-.17a6.28,6.28,0,0,1-.42-1.53L25.1,14.37c-.39-3-.7-5.24-.72-5.3h-.14l0,0,0,0,0,0-.08.06L24,9.31l-.08.09-.09.13-.12.21-.12.28c-.06.14-.1.24-.16.42l-.18.5a5.19,5.19,0,0,0-.17.51c0,.14-.1.27-.18.53s-.1.29-.15.42l-.16.52-.17.51c-.09.27-.11.32-.15.45s0,.12-.11.33L22,14.6a3.42,3.42,0,0,1-.11.34,3.21,3.21,0,0,1-.13.39c-.05.17-.1.3-.14.41s0,.15-.07.23-.07.17-.14.39a3.14,3.14,0,0,0-.12.33s-.08.21-.16.44-.05.14-.07.18-.08.23-.13.42a2.91,2.91,0,0,0-.08.32c0,.12,0,.13-.06.27a2.25,2.25,0,0,1-.07.29l-.06.27a1.71,1.71,0,0,1-.07.25c0,.1-.05.19-.09.3a3.14,3.14,0,0,1-.14.36l-.15.31c-.12.2-.24.33-.24.34-.14.18,1.77,2.71,7,9.1v-.06l.08.06S27.29,29.23,27.29,29.22ZM24.4,9.06h0Z"/></g></svg>