<svg xmlns="http://www.w3.org/2000/svg" viewBox="0 0 300 300"><defs><style>.cls-1,.cls-5{fill:none;}.cls-1,.cls-2,.cls-3,.cls-4{stroke:#000;stroke-miterlimit:10;}.cls-1{stroke-width:8px;}.cls-2,.cls-3{fill:#2196f3;}.cls-2{stroke-width:6px;}.cls-3,.cls-4{stroke-width:4px;}.cls-4,.cls-6{fill:#ffeb3b;}</style></defs><title>Logo</title><g id="Logo"><rect class="cls-1" x="0.24" y="-0.51" width="299.76" height="299.76"/><path class="cls-2" d="M162.34,177.14c-4.3,2.87-3.65,5.88,1.38,11.36,7.15,7.79,14.05,15.85,21.28,23.57,3.7,4,4,6.47-.83,10.07-12.67,9.37-12.28,9.39-23.44-1.83-6.36-6.38-12.29-13.13-18.09-20-2-2.35-3.33-3.5-6.2-.89-5.16,4.68-9.93,12-18.16,3.94-1.3-1.28-3.92,2.54-5.76,4.17-9.69,8.58-9.75,8.72-18.43-.68-7-7.58-13.73-15.41-20.54-23.17-3.93-4.49-.84-7.23,2.45-9.78,3.08-2.39,6.8-3.93,9-7.48-.13-.53-.1-1.19-.41-1.5-7.08-7.15-.53-10.72,3.77-14.46,9.92-8.64,20.16-16.89,30.1-25.51,5.88-5.11,5.53-13.24,8-19.94,5-13.3,8.9-27,13.73-40.38,3.32-9.2,7.82-10.11,14.18-3.16q40,43.7,79.81,87.61c2.17,2.39,5.84,4.64,4.26,8.77s-5.15,4.8-9.32,5.47c-19.12,3.08-50.34,8.16-66.79,13.83"/><path class="cls-3" d="M152.45,273c-38.28,1.26-69.19-11.76-95-36.84C38.54,217.81,26.79,195,22.78,168,17.05,129.52,27.84,96.09,53,68.51c26.16-28.68,59.18-43,97.8-41.72,5,.16,8,2.61,7.63,7.9-.4,5.68-3.88,8.5-9.33,8.41a102.4,102.4,0,0,0-41.5,8.11c-36,14.94-60,41.3-67.26,81.17C32.76,174,50.78,213.75,86.89,238.07c45.72,30.81,108.14,23.44,146-17.23,15.79-17,25.48-37.26,27.28-61.16.24-3.18,1.19-6.33,1.25-9.51.11-5.74,2.74-8.34,8.17-8.3,5.67,0,8.85,3.11,8.91,8.79A100.52,100.52,0,0,1,275,178.44c-13.49,48.42-45.38,77.39-91.14,91.07C172.9,272.79,161.52,273.89,152.45,273Z"/><path class="cls-3" d="M244.68,112.29c0,1-.05,2,0,2.93.19,3.35-.75,5.8-4.41,6.13-4.05.36-5.19-2.11-5.55-5.78C233.29,101,227.73,89,215.88,80c-8.52-6.49-18.08-8.24-27.88-9.84-3.07-.5-5.38-.75-5.56-4.86-.2-4.73,3.32-4.48,5.71-4.51a54.11,54.11,0,0,1,36,12.73C236.26,83.38,243.12,96.37,244.68,112.29Z"/><path class="cls-4" d="M274.42,104.49c0,1.41-.07,2.82,0,4.22.28,4.8-1.06,8.34-6.32,8.83-5.82.54-7.48-3-8-8.28-2.12-21-10.17-38.19-27.27-51.12-12.28-9.29-26-11.76-40.13-14-4.42-.71-7.75-1.05-8-7-.31-6.81,4.76-6.46,8.19-6.52,19.3-.36,36.75,5.76,51.91,18.12C262.17,63,272.1,81.59,274.42,104.49Z"/><path class="cls-5" d="M160.68,171.44a5,5,0,0,1,.35.49l-1.24-9.83C160.4,167.44,160.74,170.88,160.68,171.44Z"/><path class="cls-5" d="M161.26,172.56a1.31,1.31,0,0,0-.23-.63l.12.92C161.21,172.67,161.26,172.56,161.26,172.56Z"/><path class="cls-5" d="M146.38,58h0Z"/><path class="cls-5" d="M150.48,88.63l9.31,73.47C158,146.17,153.72,113.22,150.48,88.63Z"/><path class="cls-5" d="M161.24,175.43a1.76,1.76,0,0,0,.28.43h0l-.38-3A3.77,3.77,0,0,0,161.24,175.43Z"/><path class="cls-6" d="M237.78,155.31a4.92,4.92,0,0,0-.24-.84l-.06-.11a8.78,8.78,0,0,0-1-1.52,17.54,17.54,0,0,0-1.46-1.52l-.62-.6s-.59-.57-1.19-1.23c-8.49-9.19-11.1-12.24-11.1-12.24-.49-.57-5.46-6-15.4-17l-16.09-17.67-5.31-5.82-3.8-4.17-3.38-3.7-3.19-3.5-2.46-2.69-2.3-2.52c-.68-.74-1.36-1.48-2-2.23l-2.22-2.42-2-2.19-1.58-1.72-2-2.23-1.42-1.55L157.15,66,155.39,64l-.61-.66-.64-.69c-.83-.9-.71-.79-.88-1-.58-.6-1-1-1.15-1.14l-.48-.43-.5-.41-.5-.39-.41-.28-.32-.21-.4-.23-.32-.17-.37-.17-.37-.14-.29-.1-.21-.06-.18,0-.11,0a6.88,6.88,0,0,0-1.45.07l.88,31.79c1.62,12.3,3.42,26.77,5.12,40.07.38,3,4.15,6.83,5,13.42.09.75.06,1.83.22,3.11.49,4,1.63,9.23,2.4,15.71l1.24,9.83a1.31,1.31,0,0,1,.23.63s0,.11-.11.29l.38,3c.1.11.26.33.49.33s.32-.14,2.54-.84c.42-.13,1.77-.55,3.95-1.17s4-1.09,5.35-1.42c2.18-.55,3.93-1,5-1.2,1.45-.34,2.62-.59,3.87-.87l3.08-.66,2.54-.53,3.07-.62c.81-.17,1.45-.29,2.59-.51l2.07-.39,2.46-.47,2-.37,2.77-.5,1.9-.34,3-.53,2.24-.38,3-.52,2-.34,1.67-.29,2.36-.38,1.88-.3,1.51-.25,1.29-.21c.19,0,.33,0,.52-.08L225,163l.16,0c.37-.05,1.27-.21,2.25-.37.55-.08,1-.14,1.79-.28s1.28-.22,1.55-.27l1-.22.93-.23c.4-.12.76-.25,1.06-.37a6.87,6.87,0,0,0,1.39-.72,5.34,5.34,0,0,0,.88-.72,5.79,5.79,0,0,0,1.14-1.65,5.29,5.29,0,0,0,.5-1.4A4,4,0,0,0,237.78,155.31Z"/><path class="cls-6" d="M163.09,174.36c-.46-1.07.35-1.48.51-2l-2.57-.46c-.16-.27,1.18-.94,1.18-1,.06-.56-1.81-3.54-2.42-8.88l-9.31-73.47c-2.27-17.17-4-30.25-4.16-30.63a.49.49,0,0,0,.15-.06s.26,0-.16,0l.42,0s-.47,0-.53,0l-.09,0-.1,0-.11,0-.12,0-.16.07-.13.07-.19.1-.22.15-.13.09a4.65,4.65,0,0,0-.43.37c-.06.06-.21.2-.39.4s-.27.29-.47.55a6,6,0,0,0-.51.72,13.9,13.9,0,0,0-.71,1.25c-.32.63-.55,1.16-.73,1.57-.33.81-.55,1.42-.92,2.45-.45,1.26-.78,2.23-1,2.88-.89,2.57-.9,2.6-1,2.93l-1,3-.82,2.46-1,3-1,2.94c-.51,1.56-.62,1.89-.86,2.64-.14.41-.22.67-.62,1.86-.31,1-.58,1.78-.74,2.29-.45,1.36-.44,1.32-.64,1.94-.39,1.19-.68,2.06-.75,2.24-.33,1-.59,1.76-.81,2.39l-.45,1.3c-.22.64-.35,1-.8,2.27l-.67,1.88c-.11.31-.45,1.27-.94,2.57-.31.87-.29.79-.38,1-.18.52-.48,1.35-.78,2.44-.23.81-.37,1.43-.46,1.83-.16.7-.15.77-.32,1.54s-.16.65-.41,1.72-.21,1-.36,1.56c-.07.27-.2.78-.38,1.42s-.3,1.08-.52,1.71-.45,1.25-.84,2.11a16,16,0,0,1-.88,1.77,16.4,16.4,0,0,1-1.37,2c-.81,1,10.22,15.64,40.58,52.51l-.05-.33.49.33C161.85,176,163.12,174.43,163.09,174.36ZM146.43,58h0Z"/></g></svg>